<?xml version="1.0" encoding="utf-8"?>
<!-- Generator: Adobe Illustrator 16.0.0, SVG Export Plug-In . SVG Version: 6.00 Build 0)  -->
<!DOCTYPE svg PUBLIC "-//W3C//DTD SVG 1.1//EN" "http://www.w3.org/Graphics/SVG/1.1/DTD/svg11.dtd">
<svg version="1.1" id="Layer_1" xmlns="http://www.w3.org/2000/svg" xmlns:xlink="http://www.w3.org/1999/xlink" x="0px" y="0px"
	 width="498.375px" height="136.585px" viewBox="0 0 498.375 136.585" enable-background="new 0 0 498.375 136.585"
	 xml:space="preserve">
<g>
	<path fill="#686868" d="M155.531,49.817l-4.661-0.444V43.38h16.943l15.095,42.692h0.073l4.218,0.223v6.289h-19.09v-5.994
		l2.812-0.223c1.554-0.146,2.293-0.592,1.775-2.219l-1.554-4.588H153.83l-2.22,6.512l4.439,0.223v6.289h-17.092v-5.994l2.441-0.223
		c1.258-0.146,1.702-0.664,2.22-2.07L155.531,49.817z M155.605,72.753h13.762l-6.658-21.087h-0.223L155.605,72.753z"/>
	<path fill="#686868" d="M217.018,83.63l3.182,5.697c-2.886,2.366-7.399,4.291-12.875,4.291c-10.876,0-17.313-6.882-17.313-19.164
		c0-15.02,9.249-20.199,17.609-20.199c4.439,0,7.991,1.11,11.543,3.034v9.619l-6.808,0.518v-3.551c0-1.406-0.222-2.072-1.554-2.516
		c-0.888-0.296-1.775-0.444-2.885-0.444c-5.92,0-8.953,4.439-8.953,12.652c0,8.064,2.96,13.244,9.545,13.244
		C211.395,86.812,213.984,85.849,217.018,83.63z"/>
	<path fill="#686868" d="M258.083,84.371c0,1.627,0.444,2.07,1.851,2.146l2.367,0.147v5.92h-11.765v-4.293l-0.222-0.072
		c-2.294,3.328-6.067,5.326-10.137,5.326c-10.433,0-14.798-7.397-14.798-17.979c0-13.023,6.215-21.31,19.533-21.31
		c2.441,0,7.843,0.592,13.17,2.589L258.083,84.371L258.083,84.371z M249.5,61.655c-1.109-0.518-3.403-0.962-5.697-0.962
		c-7.028,0-9.396,6.585-9.396,14.576c0,6.141,1.479,11.986,7.695,11.986c4.587,0,7.398-3.256,7.398-6.438V61.655z"/>
	<path fill="#686868" d="M291.453,55.144v-7.473c0-1.258-0.666-1.702-1.924-1.776l-3.182-0.222v-5.845h13.762v44.986
		c0.074,1.258,0.593,1.701,1.851,1.701l2.59,0.148v5.92h-11.985v-4.365l-0.224-0.074c-2.293,3.699-5.993,5.4-10.062,5.4
		c-11.543,0-14.945-8.879-14.945-18.127c0-12.652,6.511-21.162,18.053-21.162C287.975,54.256,289.751,54.626,291.453,55.144z
		 M291.453,61.877c-1.332-0.592-3.329-1.184-5.623-1.184c-7.029,0-9.396,6.659-9.396,13.91c0,6.732,1.629,12.43,7.99,12.43
		c4.145,0,7.029-2.736,7.029-5.992V61.877z"/>
	<path fill="#686868" d="M339.473,64.541c0,11.394-12.355,13.318-21.087,13.392c0.296,4.809,2.812,8.73,9.101,8.73
		c4.365,0,7.548-1.998,9.324-3.256l2.812,5.993c-1.185,1.035-6.067,4.144-13.022,4.144c-12.578,0-17.461-7.695-17.461-18.719
		c0-10.952,6.142-20.57,18.274-20.57C334.664,54.256,339.473,57.956,339.473,64.541z M326.895,60.545
		c-5.918,0-8.582,5.697-8.805,11.173c5.477-0.074,13.244-1.332,13.244-7.029C331.334,61.951,329.559,60.545,326.895,60.545z"/>
	<path fill="#686868" d="M344.209,55.366h12.504v4.809c2.59-3.699,6.363-5.919,11.246-5.919c4.734,0,8.141,1.924,9.841,5.919
		c2.591-3.699,6.363-5.919,11.247-5.919c6.955,0,11.098,4.144,11.098,12.874v19.311l4.219,0.223v5.92h-17.609V86.96l2.441-0.224
		c1.332-0.147,2.072-0.592,2.146-2.366V69.054c0-4.513-0.368-7.991-5.104-7.991c-4.957,0-7.178,3.255-7.178,7.621v17.757
		l4.069,0.223v5.92h-17.461V86.96l2.44-0.224c1.406-0.147,2.146-0.592,2.146-2.44V69.054c0-4.513-0.37-7.991-5.105-7.991
		c-5.179,0-7.176,3.625-7.176,7.473v17.905l3.994,0.223v5.92h-17.461V86.96l2.441-0.224c1.406-0.147,2.146-0.592,2.146-2.44h0.074
		V63.875c0-1.628-0.444-2.22-1.851-2.294l-3.106-0.222L344.209,55.366L344.209,55.366z"/>
	<path fill="#686868" d="M435.959,85.554c-2.59,3.699-7.103,5.771-11.986,5.771c-7.398,0-11.469-4.07-11.469-12.802V63.653
		c0-1.554-0.592-1.998-1.85-2.072l-2.367-0.148v-6.067h13.021v21.235c0,4.514,0.74,7.916,5.477,7.916
		c5.18,0,7.917-3.477,7.917-7.324V63.801c0-1.627-0.444-2.22-1.851-2.22l-2.367-0.148v-6.067h13.021v35.811
		c0,12.209-6.141,17.24-17.166,17.24c-4.661,0-10.802-0.89-13.909-2.443V95.691l7.028-0.592v3.551c0,1.406,0.37,2.146,1.702,2.664
		c1.405,0.518,3.033,0.74,5.253,0.74c6.808,0,9.545-4.145,9.545-10.877L435.959,85.554L435.959,85.554z"/>
	<path fill="#686868" d="M448.688,98.058h36.994v5.4h-36.994V98.058z"/>
</g>
<g>
	<path fill="#ED4523" d="M139.914,19.084c0.883-0.888,1.949-1.333,3.196-1.333s2.312,0.445,3.198,1.333
		c0.883,0.889,1.324,1.957,1.324,3.205h-3.005c0-0.422-0.147-0.781-0.442-1.075c-0.295-0.295-0.653-0.442-1.075-0.442
		c-0.422,0-0.778,0.147-1.069,0.442c-0.289,0.294-0.433,0.653-0.433,1.075v12.065c0,0.423,0.144,0.778,0.433,1.068
		c0.291,0.29,0.647,0.435,1.069,0.435c0.422,0,0.78-0.146,1.075-0.435c0.295-0.29,0.442-0.645,0.442-1.068v-4.522h-1.518v-3.02
		h4.522v7.542c0,1.248-0.441,2.312-1.324,3.197c-0.886,0.885-1.951,1.327-3.198,1.327s-2.313-0.442-3.196-1.327
		c-0.885-0.884-1.327-1.949-1.327-3.197V22.289C138.586,21.042,139.029,19.973,139.914,19.084z"/>
	<path fill="#ED4523" d="M150.344,38.878V17.751h9.061v3.02h-6.04v6.041h4.522v3.02h-4.522v6.025h6.04v3.021H150.344z"/>
	<path fill="#ED4523" d="M161.377,38.878V17.751h9.06v3.02h-6.039v6.041h4.523v3.02h-4.523v6.025h6.039v3.021H161.377z"/>
	<path fill="#ED4523" d="M172.414,17.751h3.021v7.543l3.02-7.543h3.021l-3.477,8.691l3.477,12.436h-3.021l-2.27-7.912l-0.75,1.87
		v6.042h-3.021V17.751z"/>
	<path fill="#ED4523" d="M185.23,32.836v1.518c0,0.423,0.147,0.778,0.441,1.068c0.296,0.29,0.653,0.435,1.076,0.435
		c0.424,0,0.779-0.146,1.068-0.435c0.289-0.29,0.435-0.645,0.435-1.068v-3.02c0-0.422-0.146-0.777-0.435-1.067
		s-0.645-0.435-1.068-0.435c-1.354-0.009-2.484-0.515-3.388-1.518c-0.768-0.864-1.149-1.872-1.149-3.02v-3.005
		c0-1.248,0.443-2.316,1.334-3.205c0.889-0.888,1.956-1.333,3.203-1.333s2.314,0.445,3.197,1.333
		c0.884,0.889,1.326,1.957,1.326,3.205v1.503h-0.28h-2.74v-1.503c0-0.422-0.146-0.781-0.435-1.075
		c-0.289-0.295-0.645-0.442-1.068-0.442s-0.78,0.147-1.076,0.442c-0.294,0.294-0.441,0.653-0.441,1.075v3.005
		c0,0.423,0.147,0.781,0.441,1.075c0.296,0.296,0.653,0.442,1.076,0.442c1.346,0,2.471,0.5,3.374,1.502
		c0.768,0.865,1.149,1.871,1.149,3.02v3.02c0,1.248-0.442,2.312-1.326,3.197c-0.883,0.885-1.95,1.327-3.197,1.327
		s-2.314-0.442-3.203-1.327c-0.891-0.884-1.334-1.949-1.334-3.197v-1.518L185.23,32.836L185.23,32.836z"/>
	<path fill="#ED4523" d="M193.554,17.751h3.021v9.061h3.019v-9.061h3.021v21.127h-3.021v-9.046h-3.019v9.046h-3.021V17.751z"/>
	<path fill="#ED4523" d="M205.502,17.751h3.02v16.603c0,0.423,0.146,0.778,0.435,1.068c0.291,0.29,0.648,0.435,1.076,0.435
		c0.428,0,0.785-0.146,1.075-0.435c0.29-0.29,0.435-0.645,0.435-1.068V17.751h3.021v16.603c0,1.248-0.445,2.312-1.334,3.197
		c-0.888,0.885-1.954,1.327-3.196,1.327c-1.243,0-2.308-0.442-3.196-1.327c-0.891-0.884-1.334-1.949-1.334-3.197V17.751H205.502z"/>
	<path fill="#ED4523" d="M217.451,17.78h6.04c0.826,0,1.53,0.292,2.114,0.876c0.585,0.585,0.876,1.3,0.876,2.145v6.394
		c0,0.305-0.109,0.567-0.331,0.789c-0.221,0.221-0.484,0.331-0.787,0.331v0.03c0.303,0,0.566,0.11,0.787,0.331
		c0.222,0.222,0.331,0.484,0.331,0.788v6.423c0,0.826-0.291,1.53-0.876,2.114c-0.584,0.584-1.288,0.877-2.114,0.877h-6.04V17.78z
		 M220.442,20.771v6.07h1.9c0.324,0,0.597-0.111,0.817-0.332c0.221-0.22,0.331-0.493,0.331-0.818V21.92
		c0-0.324-0.11-0.597-0.331-0.817c-0.221-0.221-0.493-0.332-0.817-0.332H220.442z M220.442,29.832v6.055h1.9
		c0.324,0,0.597-0.11,0.817-0.332c0.221-0.221,0.331-0.493,0.331-0.818v-3.771c0-0.324-0.11-0.594-0.331-0.811
		c-0.221-0.216-0.493-0.324-0.817-0.324L220.442,29.832L220.442,29.832z"/>
	<path fill="#ED4523" d="M231.77,32.836v1.518c0,0.423,0.148,0.778,0.444,1.068c0.293,0.29,0.65,0.435,1.074,0.435
		c0.422,0,0.779-0.146,1.068-0.435c0.289-0.29,0.434-0.645,0.434-1.068v-3.02c0-0.422-0.145-0.777-0.434-1.067
		s-0.646-0.435-1.068-0.435c-1.355-0.009-2.485-0.515-3.389-1.518c-0.768-0.864-1.149-1.872-1.149-3.02v-3.005
		c0-1.248,0.444-2.316,1.334-3.205c0.888-0.888,1.956-1.333,3.204-1.333c1.247,0,2.313,0.445,3.198,1.333
		c0.882,0.889,1.325,1.957,1.325,3.205v1.503h-0.28h-2.741v-1.503c0-0.422-0.145-0.781-0.434-1.075
		c-0.289-0.295-0.646-0.442-1.068-0.442c-0.424,0-0.781,0.147-1.074,0.442c-0.296,0.294-0.444,0.653-0.444,1.075v3.005
		c0,0.423,0.148,0.781,0.444,1.075c0.293,0.296,0.65,0.442,1.074,0.442c1.346,0,2.47,0.5,3.373,1.502
		c0.768,0.865,1.15,1.871,1.15,3.02v3.02c0,1.248-0.443,2.312-1.325,3.197c-0.885,0.885-1.951,1.327-3.198,1.327
		c-1.248,0-2.316-0.442-3.204-1.327c-0.89-0.884-1.334-1.949-1.334-3.197v-1.518L231.77,32.836L231.77,32.836z"/>
</g>
<g>
	<polygon opacity="0.2" fill="#020202" enable-background="new    " points="21.589,19.102 123.211,19.102 123.211,103.386 
		96.006,103.386 54.786,127.355 54.721,102.191 21.589,102.191 	"/>
	
		<linearGradient id="SVGID_1_" gradientUnits="userSpaceOnUse" x1="-179.3657" y1="218.6011" x2="-179.3657" y2="110.437" gradientTransform="matrix(1 0 0 -1 244 231.585)">
		<stop  offset="0" style="stop-color:#EE4323"/>
		<stop  offset="1" style="stop-color:#E71B3E"/>
	</linearGradient>
	<polyline fill="url(#SVGID_1_)" points="115.634,12.984 115.634,12.984 115.634,95.984 89.736,95.984 47.015,121.148 
		46.951,95.984 13.634,95.984 13.634,12.984 115.634,12.984 	"/>
	<g enable-background="new    ">
		<path fill="#FFFFFF" d="M48.047,43.086l2.319,5.161l-15.83,7.306l15.945,7.654l-2.435,5.218L26.825,57.989v-4.522L48.047,43.086z"
			/>
		<path fill="#FFFFFF" d="M60.281,80.602l-5.915-2.203L72.11,30.447l6.03,2.146L60.281,80.602z"/>
		<path fill="#FFFFFF" d="M82.779,48.248l2.319-5.161l21.222,10.38v4.522L85.098,68.425l-2.436-5.218l15.945-7.654L82.779,48.248z"
			/>
	</g>
</g>
</svg>
