<svg id="Layer_1" data-name="Layer 1" xmlns="http://www.w3.org/2000/svg" viewBox="0 0 256 96"><defs><style>.cls-1{fill:#878787;}.cls-2{fill:#fff;}</style></defs><title>xml</title><rect class="cls-1" x="0.55" y="1.39" width="255.41" height="92.88" rx="10" ry="10"/><path class="cls-2" d="M139.44,69.37H129l-10-16.3-10,16.3H99.18l14.3-22.23L100.09,26.27h10.08l9.29,15.5,9.11-15.5h9.85L124.88,47.65Z"/><path class="cls-2" d="M164.32,69.37L153.94,35.56h-0.27q0.56,10.32.56,13.77v20h-8.16V26.27h12.44l10.2,33h0.18l10.82-33h12.44v43.1h-8.52V49q0-1.44,0-3.33t0.4-10H183.8L172.69,69.37h-8.37Z"/><path class="cls-2" d="M203,69.37V26.27h9.14V61.82h17.48v7.55H203Z"/><polygon class="cls-2" points="41.05 65.86 23.94 48.75 41.05 31.64 44.01 34.59 29.85 48.75 44.01 62.91 41.05 65.86"/><polygon class="cls-2" points="70.55 65.86 67.6 62.91 81.76 48.75 67.6 34.59 70.55 31.64 87.67 48.75 70.55 65.86"/><rect class="cls-2" x="36.53" y="46.66" width="38.19" height="4.18" transform="translate(-4.71 91.53) rotate(-76.57)"/></svg>